<svg width="110" height="110" viewBox="0 0 110 110" fill="none" xmlns="http://www.w3.org/2000/svg">
<g filter="url(#filter0_d_1525_19690)">
<rect x="25" y="21" width="60" height="60" rx="15" fill="#CF51CE"/>
</g>
<g clip-path="url(#clip0_1525_19690)">
<path d="M54.5523 70.258C53.8476 70.0954 53.1972 69.8786 52.7635 69.2823C52.4925 68.9029 52.2757 68.4151 52.0589 67.9814C51.9505 67.7646 51.8963 67.6562 51.6794 67.602C50.2701 67.331 48.8608 66.8431 47.5599 66.1926C45.5001 65.1628 43.7113 63.7534 42.2477 61.9647C42.0851 61.7478 41.9225 61.7478 41.7057 61.802C40.3506 62.2899 38.887 61.6936 38.1824 60.4469C37.4777 59.146 37.7487 57.574 38.9412 56.7068C39.1581 56.5441 39.2123 56.3815 39.1039 56.1105C38.1282 52.9124 38.1282 49.6601 39.1039 46.462C39.1581 46.2452 39.1581 46.0826 38.9412 45.9199C37.7487 45.0527 37.4235 43.4807 38.1282 42.1798C38.8328 40.8789 40.2964 40.3368 41.7057 40.8247C41.9767 40.9331 42.0851 40.8247 42.2477 40.662C43.7113 38.8733 45.5001 37.4639 47.5599 36.434C48.8066 35.7836 50.1617 35.3499 51.5168 35.0789C51.8421 35.0247 52.0589 34.9163 52.1673 34.4827C52.3841 33.1817 53.6308 32.3145 54.986 32.3145C56.3411 32.3145 57.5336 33.2901 57.8046 34.5911C57.8588 34.9163 58.0214 35.0247 58.2925 35.0789C60.5149 35.5126 62.5205 36.3798 64.3634 37.6808C65.6102 38.548 66.6943 39.5237 67.6157 40.662C67.7784 40.8789 67.941 40.9331 68.212 40.8247C69.5129 40.3368 71.0307 40.9331 71.7353 42.1256C72.44 43.4265 72.169 44.9984 71.0307 45.8657C70.8138 46.0283 70.7596 46.191 70.8138 46.462C71.7895 49.6601 71.7895 52.9124 70.8138 56.1105C70.7596 56.3273 70.7596 56.4899 70.9765 56.6525C72.0606 57.4656 72.44 58.9834 71.8979 60.2301C71.3017 61.531 69.8924 62.2899 68.5914 61.9104C67.9952 61.7478 67.7242 61.9104 67.3447 62.3441C64.9597 65.0543 61.9242 66.7889 58.4009 67.5478C58.0756 67.602 57.8588 67.7646 57.8046 68.144C57.4794 69.2823 56.7205 69.9328 55.6364 70.258C55.528 70.258 55.4738 70.3122 55.3654 70.3122C55.0402 70.258 54.8233 70.258 54.5523 70.258ZM54.9317 42.9929C50.3785 42.9929 46.6384 46.733 46.6384 51.2862C46.6384 55.8395 50.3785 59.5796 54.9317 59.5796C59.485 59.5796 63.2251 55.8395 63.2251 51.2862C63.2251 46.733 59.485 42.9929 54.9317 42.9929ZM52.1131 36.163C48.3729 36.8677 45.3374 38.7107 42.9524 41.6377C43.6029 42.4508 43.8197 43.3181 43.6029 44.2938C43.6029 44.4022 43.7113 44.5106 43.7655 44.5648C44.4702 44.9442 45.1748 45.3237 45.8795 45.7031C46.2047 45.8657 46.53 46.0826 46.8552 46.2452C48.8066 43.3723 51.4626 41.8003 54.9317 41.8003C58.4009 41.8003 61.0027 43.4265 62.9541 46.2452C63.8756 45.7573 64.7429 45.2695 65.6102 44.7816C66.0438 44.5648 66.3148 44.348 66.2064 43.7517C66.0438 42.9387 66.369 42.234 66.9111 41.5835C64.5261 38.6565 61.4906 36.8135 57.7504 36.1088C57.371 37.2471 56.6121 37.8976 55.4738 38.1686C55.4738 38.9817 55.4738 39.7948 55.4738 40.5536C55.0944 40.5536 54.7149 40.5536 54.2813 40.5536C54.2813 39.7406 54.2813 38.9275 54.2813 38.1686C53.2514 37.8976 52.4925 37.2471 52.1131 36.163ZM42.9524 60.9348C45.3916 63.8618 48.3729 65.7048 52.1131 66.4095C52.4925 65.3254 53.2514 64.6207 54.3897 64.3497C54.3897 63.5366 54.3897 62.7235 54.3897 61.9647C54.8233 61.9647 55.1486 61.9647 55.5822 61.9647C55.5822 62.7777 55.5822 63.5908 55.5822 64.3497C56.7205 64.6207 57.4252 65.3254 57.8046 66.4095C61.5448 65.6506 64.5803 63.8618 66.9653 60.9348C66.2606 59.8507 66.2064 59.5254 66.3148 58.2787C66.3148 58.1703 66.2606 58.0619 66.2064 58.0077C65.1765 57.4114 64.0924 56.8694 63.0083 56.2731C61.0569 59.146 58.4009 60.7179 54.9317 60.7179C51.4626 60.7179 48.8066 59.0918 46.8552 56.2731C45.7711 56.8694 44.7412 57.4114 43.7113 58.0077C43.6571 58.0619 43.5487 58.1703 43.6029 58.2787C43.8197 59.3086 43.5487 60.1759 42.9524 60.9348ZM46.3131 55.2432C45.1748 52.5872 45.1748 49.9311 46.3131 47.2751C45.1748 46.6788 44.0907 46.0283 42.9524 45.4321C42.1935 46.2452 41.3263 46.5704 40.2422 46.462C39.2665 49.6601 39.2665 52.804 40.2422 56.0021C41.3263 55.8937 42.1935 56.2731 42.9524 57.032C44.0907 56.4899 45.1748 55.8937 46.3131 55.2432ZM66.9111 57.0862C67.6157 56.3815 68.4288 55.9479 69.4587 56.0021C69.5129 56.0021 69.6755 55.8395 69.7297 55.7853C70.2718 54.0507 70.4886 52.3161 70.3802 50.4732C70.326 49.118 70.1092 47.8171 69.6213 46.5162C68.5914 46.6246 67.7242 46.2994 67.0195 45.5947C66.9653 45.5405 66.8027 45.5405 66.6943 45.5947C66.2064 45.8657 65.7186 46.1368 65.2849 46.3536C64.7429 46.6788 64.1466 46.9498 63.6046 47.2751C64.7429 49.9311 64.7429 52.5872 63.6046 55.2432C64.6887 55.8937 65.7728 56.4899 66.9111 57.0862ZM54.9317 37.0303C55.9074 37.0303 56.7205 36.2172 56.7205 35.2957C56.7205 34.32 55.9616 33.507 54.986 33.507C54.0103 33.507 53.1972 34.32 53.1972 35.2957C53.143 36.2172 53.9561 37.0303 54.9317 37.0303ZM42.4646 43.5891C42.4646 42.6134 41.6515 41.8003 40.6758 41.8003C39.7001 41.8003 38.887 42.6134 38.887 43.5891C38.887 44.5648 39.7001 45.3237 40.6758 45.3237C41.7057 45.3237 42.4646 44.5106 42.4646 43.5891ZM70.9223 43.5891C70.9223 42.6134 70.1092 41.8003 69.1877 41.8003C68.212 41.8003 67.3989 42.5592 67.3989 43.5349C67.3989 44.5106 68.212 45.3237 69.1877 45.3237C70.1092 45.3779 70.9223 44.5648 70.9223 43.5891ZM42.4646 58.9834C42.4646 58.0077 41.6515 57.1946 40.6758 57.1946C39.7001 57.1946 38.887 58.0077 38.887 58.9834C38.887 59.9591 39.7001 60.7721 40.6758 60.7721C41.7057 60.7721 42.4646 59.9591 42.4646 58.9834ZM70.9223 58.9834C70.9223 58.0077 70.1092 57.1946 69.1877 57.1946C68.212 57.1946 67.3989 57.9535 67.3989 58.9292C67.3989 59.9049 68.212 60.7179 69.1877 60.7179C70.1092 60.7721 70.9223 59.9591 70.9223 58.9834ZM54.9317 65.5422C53.9561 65.5422 53.143 66.3553 53.143 67.2768C53.143 68.2524 53.9561 69.0655 54.9317 69.0655C55.9074 69.0655 56.7205 68.2524 56.7205 67.2768C56.7205 66.3011 55.9074 65.5422 54.9317 65.5422Z" fill="white"/>
<path d="M53.035 50.5809C51.8966 49.551 51.734 48.3042 52.0593 46.949C52.3845 45.5395 53.7939 44.618 55.1491 44.7264C56.7212 44.889 57.7511 46.0816 57.8595 47.6537C57.9137 48.7378 57.6969 49.7136 56.7754 50.5267C56.938 50.6351 57.1006 50.7977 57.2632 50.9062C58.1306 51.4482 59.0521 51.9903 59.9195 52.4782C60.1363 52.5866 60.2447 52.7492 60.1905 53.0203C60.1905 53.5624 60.1905 54.1044 60.1905 54.5923C60.2447 55.297 59.8652 55.7849 59.269 56.0017C58.6727 56.2186 58.0222 56.3812 57.4259 56.4354C55.4744 56.598 53.4687 56.6522 51.5172 56.327C51.1919 56.2728 50.8667 56.1644 50.5414 56.0559C49.8909 55.7849 49.5115 55.297 49.5657 54.5923C49.5657 54.0502 49.5657 53.5082 49.5657 52.9661C49.5657 52.7492 49.6199 52.6408 49.7825 52.5324C50.704 51.9903 51.5714 51.4482 52.4929 50.9062C52.7097 50.8519 52.8724 50.7435 53.035 50.5809ZM54.607 55.4597C55.6912 55.4054 56.4501 55.4054 57.209 55.3512C57.6969 55.297 58.239 55.1886 58.7269 55.0802C58.9979 55.026 59.0521 54.8634 59.0521 54.5923C59.2147 53.725 58.8895 53.1287 58.0222 52.8034C57.9137 52.7492 57.8053 52.695 57.7511 52.6408C57.1006 52.2072 56.4501 51.7193 55.7996 51.2856C55.7454 51.2314 55.5828 51.2314 55.4744 51.2314C55.0407 51.2314 54.6612 51.2314 54.2276 51.2314C54.1192 51.2314 53.9565 51.2314 53.9023 51.2856C53.1976 52.0445 52.2761 52.4782 51.4088 52.9661C50.8667 53.2913 50.5956 53.6166 50.704 54.2671C50.7583 55.026 50.7583 55.026 51.463 55.2428C51.5172 55.2428 51.5172 55.2428 51.5714 55.2428C52.764 55.297 53.8481 55.4054 54.607 55.4597ZM53.1434 47.9789C53.1434 48.1415 53.1434 48.3042 53.1434 48.4668C53.1976 49.3883 53.9565 50.0388 54.8239 50.093C55.6912 50.1472 56.5043 49.551 56.6127 48.6836C56.667 48.1957 56.667 47.7079 56.5585 47.2742C56.2875 46.19 54.9865 45.648 54.0107 46.19C53.4145 46.5695 53.1434 47.22 53.1434 47.9789Z" fill="white"/>
<path d="M55.529 35.8376C55.1495 35.8376 54.7701 35.8376 54.3906 35.8376C54.3906 35.4581 54.3906 35.0787 54.3906 34.6992C54.7701 34.6992 55.1495 34.6992 55.529 34.6992C55.529 35.0787 55.529 35.4581 55.529 35.8376Z" fill="white"/>
<path d="M41.2712 44.1296C40.8917 44.1296 40.5123 44.1296 40.1328 44.1296C40.1328 43.7501 40.1328 43.3707 40.1328 42.9912C40.5123 42.9912 40.8917 42.9912 41.2712 42.9912C41.2712 43.3707 41.2712 43.7501 41.2712 44.1296Z" fill="white"/>
<path d="M69.7302 42.9912C69.7302 43.3707 69.7302 43.7501 69.7302 44.1296C69.3507 44.1296 68.9713 44.1296 68.5918 44.1296C68.5918 43.7501 68.5918 43.3707 68.5918 42.9912C68.9713 42.9912 69.3507 42.9912 69.7302 42.9912Z" fill="white"/>
<path d="M41.2712 59.5788C40.8917 59.5788 40.5123 59.5788 40.1328 59.5788C40.1328 59.1993 40.1328 58.8199 40.1328 58.4404C40.5123 58.4404 40.8917 58.4404 41.2712 58.4404C41.2712 58.8199 41.2712 59.1993 41.2712 59.5788Z" fill="white"/>
<path d="M69.7302 58.4404C69.7302 58.8199 69.7302 59.1993 69.7302 59.5788C69.3507 59.5788 68.9713 59.5788 68.5918 59.5788C68.5918 59.1993 68.5918 58.8199 68.5918 58.4404C68.9713 58.4404 69.3507 58.4404 69.7302 58.4404Z" fill="white"/>
<path d="M55.529 66.7344C55.529 67.1138 55.529 67.4933 55.529 67.8727C55.1495 67.8727 54.7701 67.8727 54.3906 67.8727C54.3906 67.4933 54.3906 67.1138 54.3906 66.7344C54.7701 66.7344 55.0953 66.7344 55.529 66.7344Z" fill="white"/>
</g>
<defs>
<filter id="filter0_d_1525_19690" x="0" y="0" width="110" height="110" filterUnits="userSpaceOnUse" color-interpolation-filters="sRGB">
<feFlood flood-opacity="0" result="BackgroundImageFix"/>
<feColorMatrix in="SourceAlpha" type="matrix" values="0 0 0 0 0 0 0 0 0 0 0 0 0 0 0 0 0 0 127 0" result="hardAlpha"/>
<feOffset dy="4"/>
<feGaussianBlur stdDeviation="12.5"/>
<feComposite in2="hardAlpha" operator="out"/>
<feColorMatrix type="matrix" values="0 0 0 0 0.917647 0 0 0 0 0.364706 0 0 0 0 0.733333 0 0 0 0.25 0"/>
<feBlend mode="normal" in2="BackgroundImageFix" result="effect1_dropShadow_1525_19690"/>
<feBlend mode="normal" in="SourceGraphic" in2="effect1_dropShadow_1525_19690" result="shape"/>
</filter>
<clipPath id="clip0_1525_19690">
<rect width="37.9978" height="37.9978" fill="white" transform="translate(35.9785 32.3135)"/>
</clipPath>
</defs>
</svg>
