<svg width="110" height="110" viewBox="0 0 110 110" fill="none" xmlns="http://www.w3.org/2000/svg">
<g filter="url(#filter0_d_1525_19661)">
<rect x="25" y="21" width="60" height="60" rx="15" fill="#CF51CE"/>
</g>
<g clip-path="url(#clip0_1525_19661)">
<path d="M38.5488 64.4544H55.6478V66.3543C55.6478 67.4032 56.4988 68.2542 57.5477 68.2542H60.0809C60.635 68.2542 61.1595 68.0068 61.5157 67.5912C61.5256 67.5912 61.5355 67.5912 61.5454 67.5813C62.0105 68.0167 62.6141 68.2542 63.2474 68.2542H70.8469C71.8958 68.2542 72.7468 67.4032 72.7468 66.3543C72.7468 66.0277 72.6578 65.7012 72.4895 65.4241C73.3504 64.8898 73.6374 63.7716 73.1228 62.8909C73.5978 62.5941 73.9145 62.0993 73.9936 61.5452C74.0728 60.991 73.8947 60.427 73.5186 60.0213C74.0233 59.4672 74.1519 58.6657 73.8452 57.9829C73.5384 57.3001 72.8557 56.8548 72.1036 56.8548H70.2037V37.2226C70.2037 35.8274 69.0658 34.6895 67.6705 34.6895H38.5488C37.1536 34.6895 36.0156 35.8274 36.0156 37.2226V61.9212C36.0156 63.3164 37.1536 64.4544 38.5488 64.4544ZM60.0809 66.9876H57.5477C57.2014 66.9876 56.9144 66.7006 56.9144 66.3543V60.6546C56.9144 60.3083 57.2014 60.0213 57.5477 60.0213H60.0809C60.4272 60.0213 60.7142 60.3083 60.7142 60.6546V66.3543C60.7142 66.7006 60.4272 66.9876 60.0809 66.9876ZM72.7468 58.7547C72.7468 59.1011 72.4599 59.388 72.1135 59.388H70.2136C69.8673 59.388 69.5803 59.675 69.5803 60.0213C69.5803 60.3676 69.8673 60.6546 70.2136 60.6546H72.1135C72.4599 60.6546 72.7468 60.9416 72.7468 61.2879C72.7468 61.6342 72.4599 61.9212 72.1135 61.9212H70.2136C69.8673 61.9212 69.5803 62.2082 69.5803 62.5545C69.5803 62.9008 69.8673 63.1878 70.2136 63.1878H71.4802C71.8266 63.1878 72.1135 63.4748 72.1135 63.8211C72.1135 64.1674 71.8266 64.4544 71.4802 64.4544H70.2136C69.8673 64.4544 69.5803 64.7414 69.5803 65.0877C69.5803 65.434 69.8673 65.721 70.2136 65.721H70.8469C71.1933 65.721 71.4802 66.0079 71.4802 66.3543C71.4802 66.7006 71.1933 66.9876 70.8469 66.9876H63.2474C62.5448 66.9876 61.9808 66.4235 61.9808 65.721V60.3874C62.7724 59.8927 63.3661 59.1307 63.663 58.2501C64.227 56.558 64.514 54.7867 64.514 53.0056C64.514 52.9165 64.5733 52.8472 64.6525 52.8176C64.8702 52.778 65.4342 52.679 65.9686 53.7279C66.2654 54.3315 66.4139 54.9945 66.404 55.6773V57.4881C66.404 57.8345 66.6909 58.1214 67.0373 58.1214H72.1036C72.4599 58.1214 72.7468 58.4084 72.7468 58.7547ZM67.6804 56.8548V55.6773C67.6903 54.8065 67.4924 53.9357 67.1065 53.154C66.4831 51.9369 65.5332 51.3729 64.4348 51.5708C63.7421 51.6994 63.2474 52.303 63.2474 53.0056C63.2474 54.6482 62.9802 56.2908 62.4656 57.8542C62.2677 58.4381 61.8818 58.9328 61.3673 59.2792C61.0209 58.9526 60.5559 58.7745 60.0809 58.7646H57.5477C56.4988 58.7646 55.6478 59.6156 55.6478 60.6645V63.1977H38.5488C37.8462 63.1977 37.2822 62.6337 37.2822 61.9311V41.0224H68.947V56.8548H67.6804ZM38.5488 35.956H67.6804C68.383 35.956 68.947 36.5201 68.947 37.2226V39.7558H37.2822V37.2226C37.2822 36.5201 37.8462 35.956 38.5488 35.956Z" fill="white"/>
<path fill-rule="evenodd" clip-rule="evenodd" d="M39.8155 37.856C39.8155 38.2023 39.5285 38.4893 39.1822 38.4893C38.8358 38.4893 38.5488 38.2023 38.5488 37.856C38.5488 37.5096 38.8358 37.2227 39.1822 37.2227C39.5285 37.2227 39.8155 37.5096 39.8155 37.856Z" fill="white"/>
<path fill-rule="evenodd" clip-rule="evenodd" d="M42.3487 37.856C42.3487 38.2023 42.0617 38.4893 41.7154 38.4893C41.369 38.4893 41.082 38.2023 41.082 37.856C41.082 37.5096 41.369 37.2227 41.7154 37.2227C42.0617 37.2227 42.3487 37.5096 42.3487 37.856Z" fill="white"/>
<path fill-rule="evenodd" clip-rule="evenodd" d="M44.8819 37.856C44.8819 38.2023 44.5949 38.4893 44.2486 38.4893C43.9022 38.4893 43.6152 38.2023 43.6152 37.856C43.6152 37.5096 43.9022 37.2227 44.2486 37.2227C44.5949 37.2227 44.8819 37.5096 44.8819 37.856Z" fill="white"/>
<path d="M41.0816 54.3219H51.215C52.2639 54.3219 53.115 53.4708 53.115 52.4219V44.8219C53.115 43.7729 52.2639 42.9219 51.215 42.9219H41.0816C40.0327 42.9219 39.1816 43.7729 39.1816 44.8219V52.4219C39.1816 53.4708 40.0327 54.3219 41.0816 54.3219ZM42.6353 53.0552L45.5645 48.4438L46.9697 50.2052L45.1686 53.0552H42.6353ZM51.215 53.0552H46.6728L50.0077 47.8104L51.8483 50.1161V52.4318C51.8483 52.7682 51.5613 53.0552 51.215 53.0552ZM40.4483 44.8219C40.4483 44.4755 40.7353 44.1885 41.0816 44.1885H51.215C51.5613 44.1885 51.8483 44.4755 51.8483 44.8219V48.0875L50.4431 46.326C50.3145 46.1677 50.1165 46.0786 49.9186 46.0885C49.7108 46.0984 49.5327 46.2073 49.4139 46.3854L47.702 49.0771L46.0098 46.9594C45.8811 46.801 45.6832 46.712 45.4853 46.7219C45.2775 46.7318 45.0993 46.8406 44.9806 47.0188L41.141 53.0552H41.0816C40.7353 53.0552 40.4483 52.7682 40.4483 52.4219V44.8219Z" fill="white"/>
<path fill-rule="evenodd" clip-rule="evenodd" d="M42.9815 46.0884C42.9815 46.4348 42.6945 46.7217 42.3482 46.7217C42.0018 46.7217 41.7148 46.4348 41.7148 46.0884C41.7148 45.7421 42.0018 45.4551 42.3482 45.4551C42.6945 45.4551 42.9815 45.7421 42.9815 46.0884Z" fill="white"/>
<path fill-rule="evenodd" clip-rule="evenodd" d="M66.4137 43.5547H55.647C55.3007 43.5547 55.0137 43.8417 55.0137 44.188C55.0137 44.5344 55.3007 44.8214 55.647 44.8214H66.4137C66.76 44.8214 67.047 44.5344 67.047 44.188C67.047 43.8417 66.76 43.5547 66.4137 43.5547Z" fill="white"/>
<path fill-rule="evenodd" clip-rule="evenodd" d="M66.4137 46.0889H55.647C55.3007 46.0889 55.0137 46.3758 55.0137 46.7222C55.0137 47.0686 55.3007 47.3555 55.647 47.3555H66.4137C66.76 47.3555 67.047 47.0686 67.047 46.7222C67.047 46.3758 66.76 46.0889 66.4137 46.0889Z" fill="white"/>
<path fill-rule="evenodd" clip-rule="evenodd" d="M66.4137 48.6211H55.647C55.3007 48.6211 55.0137 48.9081 55.0137 49.2544C55.0137 49.6008 55.3007 49.8878 55.647 49.8878H66.4137C66.76 49.8878 67.047 49.6008 67.047 49.2544C67.047 48.9081 66.76 48.6211 66.4137 48.6211Z" fill="white"/>
<path fill-rule="evenodd" clip-rule="evenodd" d="M61.347 51.1553H55.647C55.3007 51.1553 55.0137 51.4423 55.0137 51.7886C55.0137 52.135 55.3007 52.4219 55.647 52.4219H61.347C61.6934 52.4219 61.9803 52.135 61.9803 51.7886C61.9803 51.4423 61.6934 51.1553 61.347 51.1553Z" fill="white"/>
<path fill-rule="evenodd" clip-rule="evenodd" d="M54.3816 56.8545H39.815C39.4686 56.8545 39.1816 57.1415 39.1816 57.4878C39.1816 57.8342 39.4686 58.1212 39.815 58.1212H54.3816C54.728 58.1212 55.015 57.8342 55.015 57.4878C55.015 57.1415 54.728 56.8545 54.3816 56.8545Z" fill="white"/>
<path fill-rule="evenodd" clip-rule="evenodd" d="M52.4816 59.3867H39.815C39.4686 59.3867 39.1816 59.6737 39.1816 60.0201C39.1816 60.3664 39.4686 60.6534 39.815 60.6534H52.4816C52.828 60.6534 53.115 60.3664 53.115 60.0201C53.115 59.6737 52.828 59.3867 52.4816 59.3867Z" fill="white"/>
</g>
<defs>
<filter id="filter0_d_1525_19661" x="0" y="0" width="110" height="110" filterUnits="userSpaceOnUse" color-interpolation-filters="sRGB">
<feFlood flood-opacity="0" result="BackgroundImageFix"/>
<feColorMatrix in="SourceAlpha" type="matrix" values="0 0 0 0 0 0 0 0 0 0 0 0 0 0 0 0 0 0 127 0" result="hardAlpha"/>
<feOffset dy="4"/>
<feGaussianBlur stdDeviation="12.5"/>
<feComposite in2="hardAlpha" operator="out"/>
<feColorMatrix type="matrix" values="0 0 0 0 0.917647 0 0 0 0 0.364706 0 0 0 0 0.733333 0 0 0 0.25 0"/>
<feBlend mode="normal" in2="BackgroundImageFix" result="effect1_dropShadow_1525_19661"/>
<feBlend mode="normal" in="SourceGraphic" in2="effect1_dropShadow_1525_19661" result="shape"/>
</filter>
<clipPath id="clip0_1525_19661">
<rect width="37.9978" height="37.9978" fill="white" transform="translate(36.0156 32.3135)"/>
</clipPath>
</defs>
</svg>
