<svg viewBox="0 0 110 110" fill="none" xmlns="http://www.w3.org/2000/svg">
<g filter="url(#filter0_d_1525_19647)">
<rect x="25" y="21" width="60" height="60" rx="15" fill="#CF51CE"/>
</g>
<g clip-path="url(#clip0_1525_19647)">
<path d="M63.6098 43.5188C62.5411 44.5875 61.4723 45.6562 60.3442 46.7844C61.6504 48.5063 62.1254 50.4656 61.6504 52.6031C61.2348 54.2656 60.2848 55.6313 58.8598 56.5813C56.0692 58.5406 52.3286 58.125 50.0129 55.6313C47.6379 53.0781 47.5192 49.3375 49.7754 46.6656C51.7942 44.2313 55.7129 43.0437 59.2161 45.5969C60.2848 44.5281 61.3536 43.4594 62.4223 42.3313C60.5223 40.7281 58.3254 39.7781 55.7129 39.6C55.7129 40.3125 55.7129 40.9656 55.7129 41.6781C55.7129 42.2719 55.4161 42.6281 54.9411 42.6281C54.4661 42.6281 54.1692 42.2719 54.1692 41.6781C54.1692 40.1344 54.1692 38.65 54.1692 37.1063C54.1692 36.9281 54.1692 36.75 54.1692 36.5719C52.6848 36.6312 51.2598 36.9281 49.8942 37.4625C45.1442 39.3625 42.1161 42.8063 40.8692 47.7937C40.8692 47.9125 40.8098 47.9719 40.8098 48.0906C40.6911 48.5063 40.3348 48.7437 39.9192 48.6844C39.5036 48.5656 39.2661 48.2094 39.3254 47.7344C39.7411 45.5969 40.5723 43.6375 41.8192 41.9156C44.7879 37.9375 48.6473 35.6219 53.5754 35.1469C53.7536 35.1469 53.9911 35.0875 54.2286 35.0875C54.2286 34.4344 54.2286 33.7219 54.2286 33.0688C54.2286 32.3562 54.4661 32 55.0004 32C55.4754 32 55.7723 32.3563 55.7723 33.0094C55.7723 34.5531 55.7723 36.0375 55.7723 37.5812C55.7723 37.7594 55.7723 37.9375 55.7723 38.1156C58.7411 38.3531 61.3536 39.4219 63.5504 41.3219C63.9067 40.9656 64.2036 40.6094 64.6192 40.1938C63.8473 39.6594 63.1348 39.0656 62.3036 38.5906C60.9973 37.8188 59.6317 37.225 58.1473 36.9281C58.0286 36.9281 57.9098 36.8688 57.8504 36.8688C57.4348 36.75 57.1973 36.3344 57.3161 35.9188C57.4348 35.5031 57.7911 35.2656 58.2661 35.3844C60.1661 35.7406 61.8879 36.4531 63.4911 37.5219C64.2629 38.0563 64.9754 38.5906 65.8661 39.2438C65.9254 39.0062 66.1036 38.8281 66.1036 38.65C66.1036 37.8187 66.1036 37.0469 66.1036 36.2156C66.1036 35.9188 66.2223 35.5625 66.4598 35.3844C67.4098 34.375 68.4192 33.3656 69.4286 32.3563C69.7254 32.0594 70.0223 31.9406 70.3786 32.1187C70.7348 32.2375 70.8536 32.5938 70.8536 32.95C70.8536 33.7219 70.8536 34.4344 70.8536 35.2656C71.6254 35.2656 72.3973 35.2656 73.1692 35.2656C73.5848 35.2656 73.8817 35.3844 74.0598 35.7406C74.1786 36.1562 74.0598 36.4531 73.7629 36.6906C72.7536 37.6406 71.8036 38.65 70.8536 39.6C70.6161 39.8375 70.2598 39.9562 69.9629 39.9562C69.1911 40.0156 68.3598 39.9562 67.5879 39.9562C67.4098 39.9562 67.1723 40.1344 66.9348 40.1938C68.2411 41.6781 69.1911 43.1625 69.9036 44.8844C70.6161 46.6063 70.9723 48.3281 71.0911 50.2281C71.8036 50.2281 72.5161 50.2281 73.1692 50.2281C73.7629 50.2281 74.1192 50.525 74.1192 51C74.1192 51.475 73.7629 51.7719 73.1692 51.7719C71.6254 51.7719 70.0817 51.7719 68.5379 51.7719C68.3598 51.7719 68.1817 51.7719 68.1223 51.7719C67.7661 53.0781 67.5879 54.3844 67.1129 55.5719C65.5692 59.55 62.7192 62.1625 58.6223 63.4094C58.5036 63.4094 58.4442 63.4688 58.3254 63.4688C57.8504 63.5875 57.4942 63.35 57.3754 62.9344C57.2567 62.5187 57.4942 62.1625 57.9692 61.9844C58.2661 61.8656 58.5629 61.8062 58.8004 61.6875C63.3129 59.9656 65.8661 56.6406 66.4004 51.8906C66.4004 51.8312 66.4004 51.8313 66.4004 51.7125C65.7473 51.7125 65.0348 51.7125 64.3817 51.7125C63.7879 51.7125 63.4317 51.4156 63.4317 50.9406C63.4317 50.4656 63.7879 50.1688 64.3817 50.1688C65.9254 50.1688 67.4098 50.1688 68.9536 50.1688C69.1317 50.1688 69.3098 50.1688 69.4879 50.1688C69.2504 46.7844 68.0629 43.8156 65.8661 41.3219C65.5098 41.6781 65.1536 42.0344 64.7973 42.3906C64.8567 42.45 64.9161 42.5688 65.0348 42.6875C66.1629 44.0531 66.9942 45.5969 67.4692 47.3187C67.7067 48.0312 67.5286 48.4469 67.0536 48.625C66.5786 48.7437 66.2223 48.4469 66.0442 47.7937C65.4504 46.25 64.6786 44.825 63.6098 43.5188ZM58.0879 46.7844C56.3067 45.3 53.2192 45.1812 51.1411 47.3187C49.1223 49.4562 49.1223 52.6031 51.2004 54.6812C53.2786 56.7594 56.4848 56.8188 58.5629 54.8C60.7004 52.7812 60.7004 49.6938 59.1567 47.7937C58.8598 48.0906 58.6223 48.3281 58.3254 48.625C58.0879 48.8031 58.1473 48.9813 58.2661 49.2188C58.6817 50.05 58.8598 50.8813 58.6223 51.7719C58.1473 53.85 56.0098 55.1562 53.9911 54.6219C51.9129 54.0875 50.6661 51.8906 51.2598 49.8719C51.9129 47.7937 54.1098 46.5469 56.0692 47.3781C56.9004 47.7344 57.3754 47.4969 57.7911 46.9031C57.9692 46.9031 58.0286 46.8438 58.0879 46.7844ZM57.0192 49.9906C56.4848 50.525 56.0098 51.0594 55.5348 51.5344C55.2379 51.8313 54.8223 51.8313 54.5254 51.5344C54.2286 51.2375 54.1692 50.8813 54.4067 50.525C54.5254 50.4062 54.6442 50.2875 54.7629 50.1688C55.1786 49.7531 55.5942 49.3375 56.0098 48.9219C54.8817 48.4469 53.7536 48.8031 53.1598 49.6938C52.5661 50.5844 52.6848 51.7719 53.4567 52.5437C54.2286 53.3156 55.3567 53.4344 56.3067 52.8406C57.1379 52.2469 57.4942 51.1187 57.0192 49.9906ZM67.5879 38.4125C68.2411 38.4125 68.8348 38.4125 69.4286 38.4125C69.5473 38.4125 69.7254 38.4125 69.7848 38.3531C70.2598 37.8781 70.7942 37.3438 71.3879 36.75C70.8536 36.75 70.4379 36.75 70.0817 36.75C69.5473 36.75 69.2504 36.4531 69.2504 35.9188C69.2504 35.5031 69.2504 35.0875 69.2504 34.5531C68.6567 35.1469 68.1817 35.6219 67.7067 36.0969C67.6473 36.1562 67.5879 36.275 67.5879 36.3938C67.5286 37.1063 67.5879 37.7 67.5879 38.4125Z" fill="white"/>
<path d="M38.9695 51.7717C38.3164 51.7717 37.6039 51.7717 36.8914 51.7717C36.2977 51.7717 35.9414 51.4749 35.9414 50.9999C35.9414 50.5249 36.2977 50.2874 36.832 50.228C38.5539 50.228 40.2164 50.228 41.9383 50.228C42.1758 49.2186 42.2945 48.2686 42.5914 47.3186C42.8289 46.5467 43.1852 45.7749 43.482 45.0624C43.7195 44.5874 44.1352 44.4092 44.5508 44.6467C44.9664 44.8842 45.0852 45.2999 44.7883 45.7749C44.0758 47.1999 43.6008 48.6842 43.5414 50.2874C44.1945 50.2874 44.7883 50.2874 45.4414 50.2874C46.1539 50.2874 46.5102 50.5249 46.5695 51.0592C46.5695 51.5936 46.2133 51.8311 45.4414 51.8311C43.957 51.8311 42.532 51.8311 41.0477 51.8311C40.8695 51.8311 40.6914 51.8311 40.5133 51.8311C40.5727 53.078 40.7508 54.2655 41.1664 55.3936C42.9477 60.5592 46.4508 63.8249 51.7352 65.1311C51.9133 65.1905 52.1508 65.2499 52.3289 65.3686C52.6258 65.6061 52.7445 65.903 52.5664 66.2592C52.3883 66.6155 52.0914 66.7936 51.6758 66.7342C49.8352 66.3186 48.0539 65.6655 46.4508 64.6561C42.1758 61.6874 39.682 57.6499 39.0883 52.4249C39.0883 52.2467 39.0289 52.0686 39.0289 51.8905C39.0289 51.8905 39.0289 51.8311 38.9695 51.7717Z" fill="white"/>
<path d="M55.7727 66.9723C55.7727 67.6848 55.7727 68.3379 55.7727 69.0504C55.7727 69.6441 55.4758 70.0004 55.0008 70.0004C54.5258 70.0004 54.2289 69.6441 54.2289 69.0504C54.2289 67.5066 54.2289 65.9629 54.2289 64.4191C54.2289 64.241 54.2289 64.0629 54.2289 63.9441C53.457 63.8254 52.7445 63.7066 52.032 63.5285C47.2227 62.2816 44.0758 59.3129 42.5914 54.5629C42.532 54.3848 42.4727 54.266 42.4727 54.0879C42.4727 53.6723 42.6508 53.4348 43.007 53.316C43.3633 53.1973 43.7195 53.316 43.8977 53.6723C43.957 53.8504 44.0164 54.0285 44.0758 54.2066C45.382 58.7191 49.5977 62.1629 54.2289 62.341C54.2289 61.6879 54.2289 60.9754 54.2289 60.3223C54.2289 59.7285 54.5258 59.3723 54.9414 59.3723C55.4164 59.3723 55.7133 59.7285 55.7133 60.3223C55.7133 61.8066 55.7133 63.3504 55.7133 64.8348C55.7133 65.0129 55.7133 65.191 55.7133 65.4879C56.6633 65.3098 57.6133 65.191 58.5039 65.0129C60.107 64.6566 61.532 64.0035 62.8977 63.1129C63.0164 63.0535 63.1352 62.9348 63.2539 62.8754C63.6102 62.7566 63.907 62.816 64.1445 63.1129C64.382 63.4098 64.3227 63.766 64.0852 64.0035C63.9664 64.1223 63.7883 64.241 63.6102 64.3598C61.2945 65.8441 58.7414 66.6754 56.0102 66.9129C56.0102 66.9129 55.8914 66.9723 55.7727 66.9723Z" fill="white"/>
<path d="M67.9437 59.9654C67.1719 59.9654 66.875 59.3717 67.1719 58.7185C67.7062 57.6498 68.2406 56.5217 68.7156 55.3935C68.8937 54.9185 69.0125 54.3842 69.1312 53.9092C69.25 53.4342 69.6062 53.1967 70.0219 53.256C70.4375 53.3748 70.675 53.731 70.6156 54.2654C70.2594 56.1654 69.5469 57.8873 68.4781 59.4904C68.3 59.7279 68.0625 59.906 67.9437 59.9654Z" fill="white"/>
<path d="M48.1727 41.6777C47.9946 41.4996 47.6977 41.3215 47.5789 41.0246C47.4008 40.6684 47.6383 40.3715 47.9352 40.134C49.0633 39.4215 50.3102 38.8277 51.6164 38.5309C52.0321 38.4121 52.3289 38.5309 52.5071 38.8871C52.7446 39.3027 52.5664 39.8371 52.0914 40.0152C50.8446 40.3715 49.7164 40.8465 48.6477 41.559C48.5883 41.559 48.4696 41.559 48.1727 41.6777Z" fill="white"/>
<path d="M46.8066 42.8061C46.8066 43.2217 46.4504 43.5186 46.0348 43.5186C45.6191 43.5186 45.3223 43.1623 45.3223 42.7467C45.3223 42.3311 45.6785 42.0342 46.0941 42.0342C46.4504 42.0342 46.8066 42.3904 46.8066 42.8061Z" fill="white"/>
<path d="M66.6375 61.5689C66.6375 61.9846 66.2812 62.3408 65.8656 62.3408C65.45 62.3408 65.0938 62.0439 65.0938 61.6283C65.0938 61.2127 65.3906 60.8564 65.8062 60.8564C66.2812 60.8564 66.6375 61.1533 66.6375 61.5689Z" fill="white"/>
</g>
<defs>
<filter id="filter0_d_1525_19647" x="0" y="0" width="110" height="110" filterUnits="userSpaceOnUse" color-interpolation-filters="sRGB">
<feFlood flood-opacity="0" result="BackgroundImageFix"/>
<feColorMatrix in="SourceAlpha" type="matrix" values="0 0 0 0 0 0 0 0 0 0 0 0 0 0 0 0 0 0 127 0" result="hardAlpha"/>
<feOffset dy="4"/>
<feGaussianBlur stdDeviation="12.5"/>
<feComposite in2="hardAlpha" operator="out"/>
<feColorMatrix type="matrix" values="0 0 0 0 0.917647 0 0 0 0 0.364706 0 0 0 0 0.733333 0 0 0 0.25 0"/>
<feBlend mode="normal" in2="BackgroundImageFix" result="effect1_dropShadow_1525_19647"/>
<feBlend mode="normal" in="SourceGraphic" in2="effect1_dropShadow_1525_19647" result="shape"/>
</filter>
<clipPath id="clip0_1525_19647">
<rect width="38" height="38" fill="white" transform="translate(36 32)"/>
</clipPath>
</defs>
</svg>
