    <svg xmlns="http://www.w3.org/2000/svg">
      <symbol id="logo" viewBox="0 0 241 58">
        <g>
          <path
            d="M85.1934 37.2458C84.4285 37.2458 83.5469 37.1289 82.5483 36.8952L79.3934 36.0348L80.2539 33.4535C82.0385 34.0909 83.5256 34.4096 84.7154 34.4096C85.3527 34.4096 85.8838 34.2608 86.3087 33.9634C86.7336 33.666 86.9461 33.2623 86.9461 32.7524C86.9461 32.2426 86.808 31.8601 86.5318 31.6052C86.2556 31.3503 85.7457 31.1272 85.0022 30.936L83.2813 30.4898C80.9018 29.8737 79.7121 28.4715 79.7121 26.2833C79.7121 24.9661 80.2114 23.8826 81.2099 23.0328C82.2297 22.183 83.5575 21.7581 85.1934 21.7581C85.852 21.7581 86.6274 21.8749 87.5197 22.1086L90.6746 22.969L89.8142 25.5503C88.0933 24.913 86.7868 24.5943 85.8945 24.5943C85.2996 24.5943 84.8003 24.7536 84.3967 25.0723C83.993 25.3697 83.7912 25.7628 83.7912 26.2514C83.7912 26.7613 83.9293 27.1437 84.2055 27.3987C84.4817 27.6536 84.9915 27.8767 85.7351 28.0679L87.4241 28.514C88.6988 28.8539 89.6124 29.3745 90.1647 30.0755C90.7171 30.7554 90.9933 31.6371 90.9933 32.7206C90.9933 34.0165 90.5047 35.1 89.5274 35.9711C88.5501 36.8209 87.1054 37.2458 85.1934 37.2458ZM98.8228 37.2458C97.2294 37.2458 96.1034 36.8528 95.4448 36.0667C94.8075 35.2806 94.4888 34.0803 94.4888 32.4656V24.8492H92.1306V22.0449H94.4888V18.3163L98.536 17.5196V22.0449H102.041V24.8492H98.536V32.5294C98.536 33.7828 99.0459 34.4096 100.066 34.4096C100.682 34.4096 101.34 34.2184 102.041 33.8359L102.679 36.226C101.51 36.9059 100.225 37.2458 98.8228 37.2458ZM108.746 37.2458C107.301 37.2458 106.154 36.7996 105.304 35.9073C104.454 35.0151 104.029 33.9528 104.029 32.7206C104.029 31.807 104.327 31.0741 104.922 30.5217C105.538 29.9481 106.494 29.5019 107.79 29.1832L112.92 27.9085V26.602C112.92 25.9858 112.729 25.4972 112.347 25.136C111.986 24.7749 111.476 24.5943 110.817 24.5943C110.073 24.5943 108.395 25.1573 105.782 26.2833L104.667 23.702L108.299 22.3635C109.404 21.9599 110.212 21.7581 110.721 21.7581C112.655 21.7581 114.174 22.2679 115.279 23.2877C116.405 24.2862 116.968 25.6034 116.968 27.2393V32.7206C116.968 33.1242 117.031 33.7297 117.159 34.537C117.307 35.3231 117.499 35.9923 117.732 36.5447L114.259 37.2458C113.834 36.7784 113.388 36.1304 112.92 35.3019C111.497 36.5978 110.105 37.2458 108.746 37.2458ZM110.18 34.4096C111.008 34.4096 111.922 33.9315 112.92 32.9755V29.7569L109.734 30.681C108.714 30.9785 108.204 31.5415 108.204 32.37C108.204 33.0074 108.384 33.5066 108.746 33.8678C109.107 34.229 109.585 34.4096 110.18 34.4096ZM125.385 37.2458C123.792 37.2458 122.666 36.8528 122.007 36.0667C121.37 35.2806 121.051 34.0803 121.051 32.4656V24.8492H118.693V22.0449H121.051V18.3163L125.098 17.5196V22.0449H128.604V24.8492H125.098V32.5294C125.098 33.7828 125.608 34.4096 126.628 34.4096C127.244 34.4096 127.903 34.2184 128.604 33.8359L129.241 36.226C128.073 36.9059 126.787 37.2458 125.385 37.2458ZM170.394 36.959H166.347V28.2591C166.347 26.9844 166.156 26.0602 165.773 25.4866C165.412 24.8917 164.828 24.5943 164.021 24.5943C163.213 24.5943 162.342 25.0723 161.407 26.0283V36.959H157.36V28.2591C157.36 26.9844 157.18 26.0602 156.818 25.4866C156.457 24.8917 155.862 24.5943 155.034 24.5943C154.248 24.5943 153.377 25.0723 152.421 26.0283V36.959H148.373V26.2833C148.373 25.8796 148.299 25.2848 148.15 24.4987C148.023 23.6914 147.842 23.0115 147.609 22.4591L151.05 21.7581C151.496 22.2042 151.953 22.8522 152.421 23.702C153.759 22.406 155.151 21.7581 156.595 21.7581C158.741 21.7581 160.196 22.5123 160.961 24.0207C161.429 23.4046 162.098 22.8734 162.969 22.4273C163.84 21.9811 164.711 21.7581 165.582 21.7581C167.197 21.7581 168.397 22.2255 169.183 23.1602C169.99 24.095 170.394 25.5503 170.394 27.5261V36.959ZM177.742 37.2458C176.297 37.2458 175.15 36.7996 174.3 35.9073C173.45 35.0151 173.025 33.9528 173.025 32.7206C173.025 31.807 173.323 31.0741 173.918 30.5217C174.534 29.9481 175.49 29.5019 176.786 29.1832L181.917 27.9085V26.602C181.917 25.9858 181.725 25.4972 181.343 25.136C180.982 24.7749 180.472 24.5943 179.813 24.5943C179.07 24.5943 177.391 25.1573 174.778 26.2833L173.663 23.702L177.296 22.3635C178.4 21.9599 179.208 21.7581 179.718 21.7581C181.651 21.7581 183.17 22.2679 184.275 23.2877C185.401 24.2862 185.964 25.6034 185.964 27.2393V32.7206C185.964 33.1242 186.027 33.7297 186.155 34.537C186.304 35.3231 186.495 35.9923 186.729 36.5447L183.255 37.2458C182.83 36.7784 182.384 36.1304 181.917 35.3019C180.493 36.5978 179.102 37.2458 177.742 37.2458ZM179.176 34.4096C180.004 34.4096 180.918 33.9315 181.917 32.9755V29.7569L178.73 30.681C177.71 30.9785 177.2 31.5415 177.2 32.37C177.2 33.0074 177.381 33.5066 177.742 33.8678C178.103 34.229 178.581 34.4096 179.176 34.4096ZM193.641 36.959H189.594V26.2833C189.594 25.8796 189.519 25.2848 189.371 24.4987C189.243 23.6914 189.063 23.0115 188.829 22.4591L192.271 21.7581C192.929 22.4167 193.386 23.309 193.641 24.435C194.066 23.5851 194.629 22.9265 195.33 22.4591C196.052 21.9918 196.828 21.7581 197.656 21.7581C198.124 21.7581 198.549 21.8324 198.931 21.9811L198.23 25.4547H197.178C196.18 25.4547 195.394 25.699 194.82 26.1877C194.268 26.6551 193.875 27.4411 193.641 28.5459V36.959ZM214.686 36.959H209.714L204.775 29.247V36.959H200.727V15.6713L204.775 14.8746V28.1316L209.81 22.0449H214.367L208.376 28.7052L214.686 36.959ZM221.94 37.2458C219.539 37.2458 217.723 36.5341 216.49 35.1107C215.279 33.666 214.674 31.7752 214.674 29.4382C214.674 27.1012 215.301 25.2423 216.554 23.8613C217.808 22.4591 219.55 21.7581 221.78 21.7581C226.093 21.7581 228.25 23.9994 228.25 28.4822C228.25 28.9496 228.196 29.3426 228.09 29.6613H218.849C218.849 31.2547 219.135 32.4444 219.709 33.2305C220.304 34.0165 221.122 34.4096 222.163 34.4096C223.331 34.4096 224.861 33.9847 226.752 33.1349L227.867 35.7161L224.489 36.959C223.915 37.1502 223.066 37.2458 221.94 37.2458ZM221.557 24.5943C220.707 24.5943 220.038 24.8917 219.55 25.4866C219.082 26.0815 218.849 26.825 218.849 27.7173H224.043C224.043 25.6353 223.214 24.5943 221.557 24.5943ZM236.185 37.2458C234.592 37.2458 233.466 36.8528 232.807 36.0667C232.17 35.2806 231.851 34.0803 231.851 32.4656V24.8492H229.493V22.0449H231.851V18.3163L235.899 17.5196V22.0449H239.404V24.8492H235.899V32.5294C235.899 33.7828 236.408 34.4096 237.428 34.4096C238.044 34.4096 238.703 34.2184 239.404 33.8359L240.041 36.226C238.873 36.9059 237.588 37.2458 236.185 37.2458Z"
            fill="#54618E" />
          <path
            d="M143.753 36.959H139.897V32.0513H131.197L130.337 29.5657L139.419 16.5636H143.753V29.0558H145.792V32.0513H143.753V36.959ZM139.897 29.0558V20.7702L134.256 29.0558H139.897Z"
            fill="#D653D2" />
          <mask id="mask0_1457_20129" style="mask-type:alpha" maskUnits="userSpaceOnUse" x="0" y="0" width="60"
            height="58">
            <ellipse cx="30" cy="29" rx="30" ry="29" fill="url(#paint0_linear_1457_20129)" />
          </mask>
          <g mask="url(#mask0_1457_20129)">
            <ellipse cx="30" cy="29" rx="30" ry="29" fill="url(#paint1_linear_1457_20129)" />
            <path
              d="M39.539 37.0481V4.81461C39.539 4.32161 39.554 3.78511 39.584 3.20511C39.644 2.62511 39.704 2.03061 39.764 1.42161L12.224 37.0481H39.539ZM65.0317 37.0481V39.3101C65.0317 39.6291 64.9267 39.8901 64.7167 40.0931C64.5367 40.2671 64.2367 40.3541 63.8167 40.3541H43.319V58.0151H39.539V40.3541H9.43402C8.98402 40.3541 8.63902 40.2671 8.39902 40.0931C8.15902 39.8901 7.99402 39.6291 7.90402 39.3101L7.49902 37.2656L39.494 -3.62439H43.319V37.0481H65.0317Z"
              fill="white" />
          </g>
          <defs>
            <linearGradient id="paint0_linear_1457_20129" x1="69" y1="-17.4" x2="19.6538" y2="59.5417"
              gradientUnits="userSpaceOnUse">
              <stop stop-color="#FF00AA" />
              <stop offset="1" stop-color="#8912DE" />
            </linearGradient>
            <linearGradient id="paint1_linear_1457_20129" x1="69" y1="-17.4" x2="19.6538" y2="59.5417"
              gradientUnits="userSpaceOnUse">
              <stop stop-color="#FF00AA" />
              <stop offset="1" stop-color="#8912DE" />
            </linearGradient>
          </defs>
        </g>
      </symbol>
      <symbol id="wallet" viewBox="0 0 48 47">
        <g>
          <path
            d="M0 43.075C0 36.4 0 29.8 0 23.125C0.3 22.15 1.05 21.625 1.875 21.175C2.175 21.025 2.475 20.875 2.775 20.8C3.15 20.725 3.225 20.5 3.225 20.2C3.225 15.475 3.225 10.825 3.225 6.1C3.225 2.725 5.625 0.25 8.85 0.25C19.95 0.25 31.125 0.25 42.225 0.25C43.8 0.25 44.775 1.225 44.775 2.875C44.775 5.05 44.775 7.225 44.775 9.4C44.775 9.55 44.775 9.775 44.775 9.925C47.025 10.675 48 11.95 48 14.275C48 22 48 29.8 48 37.525C48 37.975 48 38.425 47.85 38.875C47.4 40.675 45.825 41.875 43.8 41.875C37.125 41.875 30.525 41.875 23.85 41.875C23.625 41.875 23.475 41.875 23.25 41.875C23.25 41.95 23.25 41.95 23.25 41.95C23.25 42.025 23.25 42.1 23.25 42.175C23.325 43.3 22.8 44.125 21.825 44.65C21 45.1 20.1 45.475 19.275 45.7C16.875 46.375 14.325 46.6 11.85 46.6C8.925 46.6 6 46.375 3.15 45.4C1.8 45.025 0.525 44.5 0 43.075ZM46.425 21.85C46.425 21.625 46.425 21.475 46.425 21.325C46.425 18.925 46.425 16.525 46.425 14.125C46.425 12.4 45.45 11.425 43.725 11.425C32.175 11.425 20.55 11.425 9 11.425C7.5 11.425 6.15 10.975 5.025 10C4.95 9.925 4.875 9.925 4.8 9.85C4.8 13.3 4.8 16.675 4.8 20.05C4.95 20.05 5.1 20.05 5.25 19.975C9.225 19.15 13.2 19.15 17.25 19.825C18.825 20.05 20.4 20.5 21.825 21.325C22.725 22 23.25 22.75 23.25 23.95C23.175 29.2 23.25 34.375 23.25 39.625C23.25 39.85 23.25 40 23.25 40.225C23.4 40.225 23.55 40.225 23.7 40.225C30.45 40.225 37.125 40.225 43.875 40.225C45.45 40.225 46.5 39.25 46.5 37.6C46.5 35.2 46.5 32.725 46.5 30.325C46.5 30.175 46.5 30.025 46.5 29.875C45.225 29.875 43.95 29.875 42.75 29.875C42.15 29.875 41.55 29.8 40.95 29.575C39.225 28.9 38.25 26.95 38.625 25.15C39 23.275 40.575 21.925 42.45 21.925C43.65 21.85 45 21.85 46.425 21.85ZM43.2 6.625C42.975 6.625 42.75 6.625 42.525 6.625C30.9 6.625 19.2 6.625 7.575 6.625C6.75 6.625 6.375 6.325 6.375 5.8C6.375 5.275 6.75 4.975 7.575 4.975C19.2 4.975 30.9 4.975 42.525 4.975C42.75 4.975 42.9 4.975 43.2 4.975C43.2 4.225 43.2 3.55 43.2 2.95C43.2 2.05 42.975 1.825 42.075 1.825C31.05 1.825 20.1 1.825 9.075 1.825C8.7 1.825 8.325 1.825 8.025 1.9C6 2.35 4.65 4.225 4.8 6.1C5.025 8.2 6.675 9.775 8.775 9.775C20.1 9.775 31.425 9.775 42.825 9.775C42.975 9.775 43.05 9.775 43.2 9.7C43.2 8.8 43.2 7.75 43.2 6.625ZM11.625 21.025C9.375 21.025 7.125 21.175 4.95 21.775C3.975 22.075 3 22.45 2.1 22.9C1.425 23.275 1.425 23.65 2.1 24.025C2.625 24.325 3.15 24.55 3.675 24.775C5.4 25.375 7.125 25.6 8.925 25.75C12.075 25.975 15.225 25.9 18.375 25.15C19.275 24.925 20.175 24.55 21.075 24.1C21.825 23.725 21.825 23.275 21.075 22.825C20.625 22.525 20.1 22.3 19.575 22.15C16.95 21.25 14.325 21.1 11.625 21.025ZM1.575 25.675C1.575 26.35 1.65 27.025 1.575 27.7C1.5 28.3 1.8 28.75 2.325 28.975C3.45 29.35 4.5 29.875 5.7 30.1C8.85 30.775 12 30.775 15.225 30.475C17.025 30.325 18.75 29.95 20.475 29.275C21.3 28.9 21.825 28.45 21.675 27.4C21.6 26.875 21.675 26.275 21.675 25.75C15.15 28.075 7.875 28.075 1.575 25.675ZM1.575 35.275C1.575 36.025 1.65 36.7 1.575 37.375C1.575 37.975 1.8 38.35 2.25 38.5C3.075 38.875 3.9 39.25 4.8 39.475C9 40.525 13.275 40.45 17.55 39.7C18.75 39.475 19.95 39.175 21 38.5C21.225 38.35 21.6 38.125 21.6 37.825C21.675 37 21.6 36.1 21.6 35.2C18.375 36.7 15 37 11.625 37C8.175 37.075 4.8 36.775 1.575 35.275ZM1.575 40.075C1.575 40.825 1.575 41.5 1.575 42.25C1.575 42.775 1.725 43.15 2.175 43.375C3 43.75 3.75 44.125 4.575 44.35C8.85 45.4 13.2 45.4 17.55 44.575C18.675 44.35 19.8 43.825 20.925 43.45C21.15 43.375 21.525 43.075 21.525 42.85C21.6 42.025 21.525 41.125 21.525 40.225C15.225 42.475 7.875 42.475 1.575 40.075ZM21.6 30.475C18.375 31.975 15 32.275 11.625 32.275C8.25 32.275 4.8 31.975 1.65 30.475C1.65 31.3 1.65 32.05 1.65 32.8C1.65 33.175 1.8 33.475 2.1 33.625C2.7 33.925 3.3 34.225 3.9 34.45C5.85 35.125 7.95 35.35 9.975 35.425C12.825 35.575 15.675 35.425 18.45 34.675C19.35 34.45 20.25 34 21.075 33.625C21.3 33.55 21.6 33.175 21.6 32.95C21.6 32.2 21.6 31.375 21.6 30.475ZM46.35 28.225C46.35 26.575 46.35 25 46.35 23.425C44.925 23.425 43.575 23.425 42.225 23.425C41.025 23.5 40.05 24.55 40.05 25.75C40.05 26.95 40.95 28.075 42.15 28.15C43.5 28.3 44.925 28.225 46.35 28.225Z"
            fill="#CF51CE" />
        </g>
      </symbol>
      <symbol id="tringle" viewBox="0 0 10 9">
        <g>
          <path
            d="M5.92254 7.53442C5.49466 8.21378 4.50428 8.21378 4.07639 7.53442L0.384211 1.6723C-0.0733378 0.945841 0.448747 -1.92373e-06 1.30729 -1.84868e-06L8.69165 -1.20312e-06C9.55019 -1.12806e-06 10.0723 0.94584 9.61472 1.6723L5.92254 7.53442Z"
            fill-opacity="0.9" />
        </g>
      </symbol>
      <symbol id="phone" viewBox="0 0 20 19">
        <g>
          <path
            d="M13.1225 13.327L14.7379 11.7116C14.9554 11.4967 15.2307 11.3496 15.5303 11.2882C15.8298 11.2267 16.1408 11.2536 16.4254 11.3654L18.3941 12.1515C18.6817 12.2682 18.9283 12.4675 19.1029 12.7242C19.2774 12.9808 19.3721 13.2834 19.3749 13.5938V17.1996C19.3732 17.4107 19.3288 17.6194 19.2444 17.8129C19.16 18.0064 19.0373 18.1809 18.8837 18.3257C18.73 18.4706 18.5487 18.5829 18.3505 18.6558C18.1524 18.7287 17.9415 18.7608 17.7307 18.7501C3.93494 17.8919 1.15128 6.20918 0.624838 1.73801C0.6004 1.51845 0.622729 1.2962 0.690354 1.08588C0.757979 0.875564 0.869369 0.681949 1.0172 0.517773C1.16502 0.353597 1.34593 0.222582 1.54803 0.133345C1.75013 0.0441085 1.96883 -0.00132632 2.18975 2.94729e-05H5.67293C5.98375 0.000949514 6.2872 0.094838 6.54423 0.269619C6.80126 0.444399 7.00012 0.692079 7.11524 0.980802L7.9013 2.94956C8.01687 3.23302 8.04635 3.54425 7.98607 3.84438C7.92579 4.1445 7.77842 4.42021 7.56236 4.63706L5.94697 6.25245C5.94697 6.25245 6.87726 12.5481 13.1225 13.327Z"
             />
        </g>
      </symbol>
      <symbol id="enter" viewBox="0 0 23 23">
        <g>
          <path
            d="M1.80675 15.1776C1.22194 15.3995 0.922763 16.0567 1.20106 16.6169C2.19378 18.615 3.75079 20.2892 5.69037 21.4246C7.95702 22.7515 10.6096 23.2625 13.2069 22.8726C15.8043 22.4828 18.1899 21.2156 19.9672 19.2818C21.7445 17.348 22.8062 14.8641 22.976 12.2432C23.1457 9.62222 22.4132 7.02213 20.9002 4.87526C19.3871 2.72839 17.1849 1.16411 14.6595 0.442526C12.1341 -0.279056 9.4378 -0.114455 7.01895 0.908958C4.94913 1.78469 3.18919 3.24411 1.94705 5.09754C1.59882 5.61713 1.81074 6.30741 2.36204 6.60286C2.91335 6.89831 3.59437 6.68584 3.95504 6.17481C4.94393 4.77369 6.30844 3.66905 7.90155 2.99501C9.84398 2.17317 12.0092 2.04099 14.0372 2.62045C16.0651 3.1999 17.8337 4.45608 19.0487 6.18009C20.2637 7.90411 20.8519 9.99207 20.7156 12.0968C20.5793 14.2015 19.7267 16.1962 18.2995 17.7491C16.8723 19.302 14.9565 20.3196 12.8707 20.6326C10.7849 20.9457 8.65486 20.5353 6.83465 19.4698C5.34178 18.5959 4.13115 17.3245 3.33123 15.8076C3.03948 15.2543 2.39155 14.9558 1.80675 15.1776Z"
            fill="white" />
          <path
            d="M1.4375 10.6C0.940444 10.6 0.5375 11.0029 0.5375 11.5C0.5375 11.9971 0.940444 12.4 1.4375 12.4L1.4375 10.6ZM16.4489 12.1364C16.8004 11.7849 16.8004 11.2151 16.4489 10.8636L10.7213 5.13604C10.3699 4.78457 9.80001 4.78457 9.44854 5.13604C9.09707 5.48751 9.09707 6.05736 9.44854 6.40883L14.5397 11.5L9.44854 16.5912C9.09707 16.9426 9.09707 17.5125 9.44854 17.864C9.80001 18.2154 10.3699 18.2154 10.7213 17.864L16.4489 12.1364ZM1.4375 12.4L15.8125 12.4V10.6L1.4375 10.6L1.4375 12.4Z"
            fill="white" />
        </g>
      </symbol>
    </svg>